<svg width="112" height="112" viewBox="0 0 112 112" fill="none" xmlns="http://www.w3.org/2000/svg">
<rect x="14.1" y="51.1" width="52.8" height="3.8" rx="1.9" fill="#DBDBDF" stroke="white" stroke-width="0.2"/>
<rect x="14.1" y="71.1" width="38.8" height="3.8" rx="1.9" fill="#DBDBDF" stroke="white" stroke-width="0.2"/>
<path d="M74.08 9.1261V9.6261H74.58L80.312 9.62609C80.3121 9.62609 80.3123 9.6261 80.3125 9.6261C83.76 9.62974 87.0653 11.0009 89.5031 13.4387C91.941 15.8766 93.3122 19.1821 93.3157 22.6299V86.7693C93.3122 90.217 91.941 93.5225 89.5031 95.9604C87.0652 98.3983 83.7597 99.7695 80.312 99.773H14.5584C11.1107 99.7695 7.80521 98.3983 5.36729 95.9604C2.92944 93.5226 1.55828 90.2172 1.55469 86.7695V22.6296C1.55828 19.182 2.92944 15.8766 5.36729 13.4387C7.80509 11.0009 11.1104 9.62976 14.5579 9.6261C14.5581 9.6261 14.5583 9.62609 14.5584 9.62609L20.2857 9.6261H20.7857V9.1261V5.27066C20.7857 4.6694 21.0246 4.09276 21.4498 3.66761C21.8749 3.24245 22.4515 3.0036 23.0528 3.0036C23.6541 3.0036 24.2307 3.24245 24.6559 3.66761C25.081 4.09276 25.3199 4.6694 25.3199 5.27066V9.1261V9.6261H25.8199H69.0459H69.5459V9.1261V5.27066C69.5459 4.97294 69.6046 4.67814 69.7185 4.4031L69.2566 4.21175L69.7185 4.40309C69.8324 4.12805 69.9994 3.87813 70.2099 3.66761C70.4204 3.45709 70.6704 3.2901 70.9454 3.17617C71.2205 3.06224 71.5153 3.0036 71.813 3.0036C72.1107 3.0036 72.4055 3.06224 72.6806 3.17617C72.9556 3.2901 73.2055 3.45709 73.416 3.66761L73.7692 3.31446L73.416 3.66761C73.6266 3.87812 73.7935 4.12804 73.9075 4.40309C74.0214 4.67814 74.08 4.97294 74.08 5.27066V9.1261ZM88.7862 86.7704V86.7697L88.7816 37.0088L88.7815 36.5088H88.2816H6.58419H6.08419V37.0088L6.08419 86.7698L6.08419 86.7704C6.08679 89.0164 6.98052 91.1696 8.56917 92.7574C10.1578 94.3451 12.3116 95.2376 14.5576 95.2389H14.5579H80.3125H80.3128C82.5588 95.2376 84.7126 94.3451 86.3012 92.7574C87.8899 91.1696 88.7836 89.0164 88.7862 86.7704ZM88.2862 31.9747H88.7859L88.7862 31.475L88.7908 22.6296V22.6288C88.7882 20.3827 87.8945 18.2295 86.3058 16.6417C84.7172 15.054 82.5634 14.1615 80.3174 14.1602H80.3171H74.5847H74.0847V14.6602V18.1559C74.0847 18.7572 73.8458 19.3338 73.4207 19.759C72.9955 20.1841 72.4189 20.423 71.8176 20.423C71.2163 20.423 70.6397 20.1841 70.2145 19.759C69.7894 19.3338 69.5505 18.7572 69.5505 18.1559V14.6602V14.1602H69.0505H25.8245H25.3245V14.6602V18.1559C25.3245 18.7572 25.0856 19.3338 24.6605 19.759C24.2353 20.1841 23.6587 20.423 23.0574 20.423C22.4562 20.423 21.8795 20.1841 21.4544 19.759C21.0292 19.3338 20.7904 18.7572 20.7904 18.1559V14.6602V14.1602H20.2904H14.5579H14.5574C12.3122 14.1628 10.1597 15.0559 8.57205 16.6435C6.98445 18.2311 6.0914 20.3836 6.0888 22.6288V22.6293V31.4747V31.9747H6.5888H88.2862Z" fill="#DBDBDF" stroke="white"/>
<circle cx="90.2591" cy="87.6235" r="21.1263" fill="#DBDBDF"/>
<path d="M97.9781 88.686C98.7885 88.686 99.4469 88.0277 99.4469 87.2172C99.4469 86.407 98.7908 85.7484 97.9781 85.7484H91.3214V79.0917C91.3214 78.2813 90.6631 77.6229 89.8526 77.6229C89.0422 77.6229 88.3838 78.2813 88.3838 79.0917V85.7484H81.7271C80.9167 85.7484 80.2583 86.4067 80.2583 87.2172C80.2583 88.0274 80.9144 88.686 81.7271 88.686H88.3838V95.3427C88.3838 96.1531 89.0422 96.8115 89.8526 96.8115C90.6631 96.8115 91.3214 96.1531 91.3214 95.3427V88.686H97.9781Z" fill="white" stroke="white" stroke-width="0.5"/>
</svg>
