<svg width="24" height="24" viewBox="0 0 24 24" fill="none" xmlns="http://www.w3.org/2000/svg">
<path d="M18.772 3.26402H17.622V2.50002C17.622 2.34089 17.5588 2.18828 17.4463 2.07576C17.3338 1.96324 17.1811 1.90002 17.022 1.90002C16.8629 1.90002 16.7103 1.96324 16.5978 2.07576C16.4852 2.18828 16.422 2.34089 16.422 2.50002V3.26402H7.57802V2.50002C7.57802 2.34089 7.5148 2.18828 7.40228 2.07576C7.28976 1.96324 7.13715 1.90002 6.97802 1.90002C6.81889 1.90002 6.66627 1.96324 6.55375 2.07576C6.44123 2.18828 6.37802 2.34089 6.37802 2.50002V3.26402H5.22702C4.48164 3.26508 3.76712 3.56172 3.24015 4.08887C2.71319 4.61602 2.41681 5.33065 2.41602 6.07602V19.289C2.41707 20.0342 2.71357 20.7486 3.24051 21.2755C3.76744 21.8025 4.48182 22.099 5.22702 22.1H18.772C19.5176 22.0995 20.2326 21.8031 20.7598 21.2758C21.2871 20.7486 21.5835 20.0337 21.584 19.288V6.07602C21.5835 5.3304 21.2871 4.61546 20.7598 4.08822C20.2326 3.56099 19.5176 3.26455 18.772 3.26402ZM20.384 19.288C20.3835 19.7154 20.2135 20.1251 19.9113 20.4273C19.6091 20.7295 19.1994 20.8995 18.772 20.9H5.22702C4.79991 20.8995 4.39046 20.7296 4.08845 20.4276C3.78644 20.1256 3.61654 19.7161 3.61602 19.289V9.06802H20.385L20.384 19.288ZM20.384 7.86802H3.61602V6.07602C3.61628 5.64875 3.78606 5.23904 4.0881 4.93681C4.39013 4.63459 4.79974 4.46455 5.22702 4.46402H6.37802V5.15402C6.37802 5.31315 6.44123 5.46577 6.55375 5.57829C6.66627 5.69081 6.81889 5.75402 6.97802 5.75402C7.13715 5.75402 7.28976 5.69081 7.40228 5.57829C7.5148 5.46577 7.57802 5.31315 7.57802 5.15402V4.46402H16.423V5.15402C16.423 5.31315 16.4862 5.46577 16.5988 5.57829C16.7113 5.69081 16.8639 5.75402 17.023 5.75402C17.1821 5.75402 17.3348 5.69081 17.4473 5.57829C17.5598 5.46577 17.623 5.31315 17.623 5.15402V4.46402H18.773C19.2002 4.46455 19.6098 4.63442 19.9119 4.9364C20.2141 5.23838 20.3842 5.64783 20.385 6.07502L20.384 7.86802ZM5.81502 12.721C5.81502 12.4738 5.88833 12.2321 6.02568 12.0266C6.16303 11.821 6.35825 11.6608 6.58666 11.5662C6.81507 11.4716 7.0664 11.4468 7.30888 11.495C7.55135 11.5433 7.77408 11.6623 7.9489 11.8371C8.12371 12.012 8.24277 12.2347 8.291 12.4772C8.33923 12.7196 8.31448 12.971 8.21987 13.1994C8.12526 13.4278 7.96504 13.623 7.75948 13.7604C7.55392 13.8977 7.31224 13.971 7.06502 13.971C6.7335 13.971 6.41555 13.8393 6.18113 13.6049C5.94671 13.3705 5.81502 13.0525 5.81502 12.721ZM10.75 12.721C10.75 12.4738 10.8233 12.2321 10.9607 12.0266C11.098 11.821 11.2933 11.6608 11.5217 11.5662C11.7501 11.4716 12.0014 11.4468 12.2439 11.495C12.4864 11.5433 12.7091 11.6623 12.8839 11.8371C13.0587 12.012 13.1778 12.2347 13.226 12.4772C13.2742 12.7196 13.2495 12.971 13.1549 13.1994C13.0603 13.4278 12.9 13.623 12.6945 13.7604C12.4889 13.8977 12.2472 13.971 12 13.971C11.6685 13.971 11.3506 13.8393 11.1161 13.6049C10.8817 13.3705 10.75 13.0525 10.75 12.721ZM15.685 12.721C15.685 12.4738 15.7583 12.2321 15.8957 12.0266C16.033 11.821 16.2283 11.6608 16.4567 11.5662C16.6851 11.4716 16.9364 11.4468 17.1789 11.495C17.4214 11.5433 17.6441 11.6623 17.8189 11.8371C17.9937 12.012 18.1128 12.2347 18.161 12.4772C18.2092 12.7196 18.1845 12.971 18.0899 13.1994C17.9953 13.4278 17.835 13.623 17.6295 13.7604C17.4239 13.8977 17.1822 13.971 16.935 13.971C16.6035 13.971 16.2856 13.8393 16.0511 13.6049C15.8167 13.3705 15.685 13.0525 15.685 12.721ZM5.81502 16.8C5.81502 16.5528 5.88833 16.3111 6.02568 16.1056C6.16303 15.9 6.35825 15.7398 6.58666 15.6452C6.81507 15.5506 7.0664 15.5258 7.30888 15.574C7.55135 15.6223 7.77408 15.7413 7.9489 15.9161C8.12371 16.091 8.24277 16.3137 8.291 16.5562C8.33923 16.7986 8.31448 17.05 8.21987 17.2784C8.12526 17.5068 7.96504 17.702 7.75948 17.8394C7.55392 17.9767 7.31224 18.05 7.06502 18.05C6.7335 18.05 6.41555 17.9183 6.18113 17.6839C5.94671 17.4495 5.81502 17.1315 5.81502 16.8ZM10.75 16.8C10.7496 16.5527 10.8226 16.3108 10.9597 16.105C11.0968 15.8992 11.2919 15.7387 11.5203 15.6438C11.7486 15.5488 12 15.5238 12.2427 15.5718C12.4853 15.6198 12.7082 15.7387 12.8832 15.9134C13.0582 16.0882 13.1775 16.3109 13.2258 16.5534C13.2742 16.796 13.2496 17.0474 13.1551 17.2759C13.0605 17.5044 12.9003 17.6998 12.6947 17.8372C12.4891 17.9747 12.2473 18.048 12 18.048C11.6688 18.048 11.3512 17.9166 11.1168 17.6826C10.8825 17.4486 10.7505 17.1312 10.75 16.8ZM15.685 16.8C15.685 16.5528 15.7583 16.3111 15.8957 16.1056C16.033 15.9 16.2283 15.7398 16.4567 15.6452C16.6851 15.5506 16.9364 15.5258 17.1789 15.574C17.4214 15.6223 17.6441 15.7413 17.8189 15.9161C17.9937 16.091 18.1128 16.3137 18.161 16.5562C18.2092 16.7986 18.1845 17.05 18.0899 17.2784C17.9953 17.5068 17.835 17.702 17.6295 17.8394C17.4239 17.9767 17.1822 18.05 16.935 18.05C16.6035 18.05 16.2856 17.9183 16.0511 17.6839C15.8167 17.4495 15.685 17.1315 15.685 16.8Z" fill="#6B6C72" stroke="#6B6C72" stroke-width="0.3"/>
</svg>
