<svg width="24" height="24" viewBox="0 0 24 24" fill="none" xmlns="http://www.w3.org/2000/svg">
<path d="M12.063 0C5.43599 0 0.0629883 5.373 0.0629883 12C0.0629883 18.627 5.43599 24 12.063 24C18.69 24 24.063 18.627 24.063 12C24.063 5.373 18.69 0 12.063 0ZM12.063 22.5C6.27299 22.5 1.56299 17.79 1.56299 12C1.56299 6.21 6.27299 1.5 12.063 1.5C17.853 1.5 22.563 6.21 22.563 12C22.563 17.79 17.8515 22.5 12.063 22.5ZM17.319 7.227C16.8345 6.909 16.1835 7.0455 15.8655 7.5315L10.8015 15.27L8.38049 13.029C7.95449 12.636 7.28999 12.6615 6.89549 13.0875C6.50099 13.5135 6.52799 14.1765 6.95399 14.571L10.3005 17.667C10.3125 17.6775 10.3275 17.6805 10.3395 17.691C10.3695 17.715 10.3875 17.748 10.419 17.7705C10.464 17.8005 10.515 17.8065 10.563 17.8275C10.62 17.8545 10.6755 17.88 10.7355 17.8965C10.794 17.9115 10.851 17.919 10.911 17.9235C10.9965 17.9325 11.079 17.9325 11.163 17.9205C11.1975 17.9145 11.2305 17.9055 11.265 17.8965C11.3685 17.871 11.4645 17.8305 11.559 17.7735C11.5755 17.763 11.589 17.751 11.6055 17.7405C11.667 17.6985 11.733 17.667 11.7855 17.61C11.823 17.5695 11.8395 17.517 11.8695 17.472C11.871 17.4705 11.874 17.469 11.874 17.4675L17.622 8.682C17.94 8.196 17.8035 7.545 17.319 7.227Z" fill="#6B6C72"/>
</svg>
