<svg width="25" height="25" viewBox="0 0 25 25" fill="none" xmlns="http://www.w3.org/2000/svg">
<mask id="path-1-outside-1" maskUnits="userSpaceOnUse" x="-0.414201" y="-0.414214" width="25.4558" height="25.4558" fill="black">
<rect fill="white" x="-0.414201" y="-0.414214" width="25.4558" height="25.4558"/>
<path fill-rule="evenodd" clip-rule="evenodd" d="M18.1583 6.8446C18.0063 6.69257 17.7598 6.69257 17.6078 6.8446L12.688 11.7643L7.394 6.47029C7.24196 6.31825 6.99547 6.31825 6.84343 6.47029C6.6914 6.62232 6.6914 6.86882 6.84343 7.02085L12.1375 12.3149L6.84461 17.6077C6.69258 17.7598 6.69258 18.0063 6.84461 18.1583C6.99665 18.3103 7.24314 18.3103 7.39518 18.1583L12.688 12.8655L17.6066 17.784C17.7586 17.936 18.0051 17.936 18.1571 17.784C18.3092 17.632 18.3092 17.3855 18.1571 17.2334L13.2386 12.3149L18.1583 7.39517C18.3104 7.24313 18.3104 6.99664 18.1583 6.8446Z"/>
</mask>
<path fill-rule="evenodd" clip-rule="evenodd" d="M18.1583 6.8446C18.0063 6.69257 17.7598 6.69257 17.6078 6.8446L12.688 11.7643L7.394 6.47029C7.24196 6.31825 6.99547 6.31825 6.84343 6.47029C6.6914 6.62232 6.6914 6.86882 6.84343 7.02085L12.1375 12.3149L6.84461 17.6077C6.69258 17.7598 6.69258 18.0063 6.84461 18.1583C6.99665 18.3103 7.24314 18.3103 7.39518 18.1583L12.688 12.8655L17.6066 17.784C17.7586 17.936 18.0051 17.936 18.1571 17.784C18.3092 17.632 18.3092 17.3855 18.1571 17.2334L13.2386 12.3149L18.1583 7.39517C18.3104 7.24313 18.3104 6.99664 18.1583 6.8446Z" fill="white"/>
<path d="M12.688 11.7643L12.3345 12.1179L12.688 12.4714L13.0416 12.1179L12.688 11.7643ZM7.394 6.47029L7.04045 6.82384L7.394 6.47029ZM12.1375 12.3149L12.491 12.6684L12.8446 12.3149L12.491 11.9613L12.1375 12.3149ZM7.39518 18.1583L7.74873 18.5119L7.39518 18.1583ZM12.688 12.8655L13.0416 12.5119L12.688 12.1583L12.3345 12.5119L12.688 12.8655ZM13.2386 12.3149L12.885 11.9613L12.5315 12.3149L12.885 12.6684L13.2386 12.3149ZM18.1583 7.39517L17.8048 7.04161L18.1583 7.39517ZM17.9613 7.19816C17.9181 7.24138 17.848 7.24138 17.8048 7.19816L18.5119 6.49105C18.1646 6.14375 17.6015 6.14375 17.2542 6.49105L17.9613 7.19816ZM13.0416 12.1179L17.9613 7.19816L17.2542 6.49105L12.3345 11.4108L13.0416 12.1179ZM7.04045 6.82384L12.3345 12.1179L13.0416 11.4108L7.74755 6.11673L7.04045 6.82384ZM7.19699 6.82384C7.15376 6.86707 7.08367 6.86707 7.04045 6.82384L7.74755 6.11673C7.40026 5.76944 6.83718 5.76944 6.48988 6.11673L7.19699 6.82384ZM7.19699 6.6673C7.24022 6.71052 7.24022 6.78061 7.19699 6.82384L6.48988 6.11673C6.14258 6.46403 6.14259 7.02711 6.48988 7.3744L7.19699 6.6673ZM12.491 11.9613L7.19699 6.6673L6.48988 7.3744L11.7839 12.6684L12.491 11.9613ZM7.19817 17.9613L12.491 12.6684L11.7839 11.9613L6.49106 17.2542L7.19817 17.9613ZM7.19817 17.8048C7.2414 17.848 7.24139 17.9181 7.19817 17.9613L6.49106 17.2542C6.14377 17.6015 6.14376 18.1646 6.49106 18.5119L7.19817 17.8048ZM7.04163 17.8048C7.08485 17.7615 7.15494 17.7615 7.19817 17.8048L6.49106 18.5119C6.83836 18.8592 7.40144 18.8592 7.74873 18.5119L7.04163 17.8048ZM12.3345 12.5119L7.04163 17.8048L7.74873 18.5119L13.0416 13.219L12.3345 12.5119ZM17.9601 17.4304L13.0416 12.5119L12.3345 13.219L17.253 18.1375L17.9601 17.4304ZM17.8036 17.4304C17.8468 17.3872 17.9169 17.3872 17.9601 17.4304L17.253 18.1375C17.6003 18.4848 18.1634 18.4848 18.5107 18.1375L17.8036 17.4304ZM17.8036 17.587C17.7604 17.5438 17.7604 17.4737 17.8036 17.4304L18.5107 18.1375C18.858 17.7903 18.858 17.2272 18.5107 16.8799L17.8036 17.587ZM12.885 12.6684L17.8036 17.587L18.5107 16.8799L13.5922 11.9613L12.885 12.6684ZM17.8048 7.04161L12.885 11.9613L13.5922 12.6684L18.5119 7.74872L17.8048 7.04161ZM17.8048 7.19816C17.7615 7.15493 17.7615 7.08484 17.8048 7.04161L18.5119 7.74872C18.8592 7.40142 18.8592 6.83834 18.5119 6.49105L17.8048 7.19816Z" fill="white" mask="url(#path-1-outside-1)"/>
</svg>
