<svg width="18" height="22" viewBox="0 0 18 22" fill="none" xmlns="http://www.w3.org/2000/svg">
<path class="sv" d="M17.6999 7.10027C17.7009 6.74533 17.6315 6.39371 17.4956 6.06581C17.3598 5.73797 17.1602 5.44035 16.9085 5.19019C16.9085 5.19014 16.9084 5.19009 16.9084 5.19004L12.8088 1.09045L17.5999 7.09997M17.6999 7.10027L17.5999 7.09997M17.6999 7.10027V7.09997H17.5999M17.6999 7.10027V18C17.6999 18.4859 17.6042 18.967 17.4183 19.4159C17.2323 19.8648 16.9598 20.2727 16.6162 20.6163C16.2726 20.9598 15.8647 21.2324 15.4158 21.4183C14.9669 21.6043 14.4858 21.7 13.9999 21.7H3.9999C3.51401 21.7 3.03288 21.6043 2.58397 21.4183C2.13507 21.2324 1.72718 20.9598 1.38361 20.6163C1.04003 20.2727 0.76749 19.8648 0.581548 19.4159C0.395606 18.967 0.299902 18.4859 0.299902 18V3.99997C0.299902 3.01867 0.689723 2.07756 1.38361 1.38368C2.07749 0.689795 3.0186 0.299974 3.9999 0.299974H10.8998M17.5999 7.09997V18C17.5999 18.4727 17.5068 18.9409 17.3259 19.3776C17.145 19.8144 16.8798 20.2113 16.5455 20.5456C16.2112 20.8799 15.8143 21.145 15.3776 21.3259C14.9408 21.5069 14.4727 21.6 13.9999 21.6H3.9999C3.52714 21.6 3.05901 21.5069 2.62224 21.3259C2.18547 21.145 1.78861 20.8799 1.45432 20.5456C1.12003 20.2113 0.854853 19.8144 0.673936 19.3776C0.493019 18.9409 0.399902 18.4727 0.399902 18V3.99997C0.399902 3.04519 0.779187 2.12952 1.45432 1.45439C2.12945 0.779259 3.04512 0.399974 3.9999 0.399974H10.8999M10.8998 0.299974C10.8997 0.299974 10.8997 0.299975 10.8996 0.299975L10.8999 0.399974M10.8998 0.299974H10.8999V0.399974M10.8998 0.299974C11.2544 0.298963 11.6057 0.368297 11.9334 0.503964C12.261 0.639616 12.5585 0.838893 12.8086 1.09026L10.8999 0.399974M16.2999 18C16.2999 18.61 16.0576 19.195 15.6262 19.6263C15.1949 20.0577 14.6099 20.3 13.9999 20.3H3.9999C3.3899 20.3 2.80489 20.0577 2.37356 19.6263C1.94222 19.195 1.6999 18.61 1.6999 18V3.99997C1.6999 3.38998 1.94222 2.80496 2.37356 2.37363C2.80489 1.94229 3.3899 1.69997 3.9999 1.69997H10.8997C11.2444 1.7011 11.5747 1.83789 11.8192 2.08074C11.8193 2.0808 11.8194 2.08086 11.8194 2.08092L15.919 6.18045C15.919 6.18052 15.9191 6.18059 15.9192 6.18066C16.162 6.42517 16.2987 6.75543 16.2999 7.1C16.2999 7.1001 16.2999 7.10019 16.2999 7.10029L16.2999 18ZM6.6999 14.015V8.28697C6.6999 8.10132 6.62615 7.92327 6.49488 7.792C6.3636 7.66072 6.18555 7.58697 5.9999 7.58697C5.81425 7.58697 5.6362 7.66072 5.50493 7.792C5.37365 7.92327 5.2999 8.10132 5.2999 8.28697V14.015C5.2999 14.2006 5.37365 14.3787 5.50493 14.5099C5.6362 14.6412 5.81425 14.715 5.9999 14.715C6.18555 14.715 6.3636 14.6412 6.49488 14.5099C6.62615 14.3787 6.6999 14.2006 6.6999 14.015ZM9.6999 14.015V11.287C9.6999 11.1013 9.62615 10.9233 9.49488 10.792C9.3636 10.6607 9.18555 10.587 8.9999 10.587C8.81425 10.587 8.6362 10.6607 8.50493 10.792C8.37365 10.9233 8.2999 11.1013 8.2999 11.287V14.015C8.2999 14.2006 8.37365 14.3787 8.50493 14.5099C8.6362 14.6412 8.81425 14.715 8.9999 14.715C9.18555 14.715 9.3636 14.6412 9.49488 14.5099C9.62615 14.3787 9.6999 14.2006 9.6999 14.015ZM12.6999 14.015V9.28697C12.6999 9.10132 12.6262 8.92327 12.4949 8.792C12.3636 8.66072 12.1856 8.58697 11.9999 8.58697C11.8143 8.58697 11.6362 8.66072 11.5049 8.792C11.3737 8.92327 11.2999 9.10132 11.2999 9.28697V14.015C11.2999 14.2006 11.3737 14.3787 11.5049 14.5099C11.6362 14.6412 11.8143 14.715 11.9999 14.715C12.1856 14.715 12.3636 14.6412 12.4949 14.5099C12.6262 14.3787 12.6999 14.2006 12.6999 14.015Z" fill="#6B6C72" stroke="#6B6C72" stroke-width="0.2" fill-opacity="0"/>
</svg>
