<svg width="100" height="100" viewBox="0 0 100 100" fill="none" xmlns="http://www.w3.org/2000/svg">
<g clip-path="url(#clip0)">
<path d="M100 27.5V42.5C100 46.6437 97.019 50 93.3385 50H53.3692H35.05L35 49.9625C38.1309 45.9875 40.0461 40.7563 40.0461 35C40.0461 29.2438 38.1309 24.0125 35 20.0375L35.05 20H93.3385C97.019 20 100 23.3562 100 27.5Z" fill="#FFC633"/>
<path d="M22.5 58C34.9264 58 45 47.9264 45 35.5C45 23.0736 34.9264 13 22.5 13C10.0736 13 0 23.0736 0 35.5C0 47.9264 10.0736 58 22.5 58Z" fill="#FFC633"/>
<path d="M86 27H91V32H86V27Z" fill="black"/>
<path d="M86 37H91V42H86V37Z" fill="black"/>
<path d="M91 32H96V37H91V32Z" fill="black"/>
<path d="M81 32H86V37H81V32Z" fill="black"/>
<path d="M67 27H72V32H67V27Z" fill="black"/>
<path d="M67 37H72V42H67V37Z" fill="black"/>
<path d="M72 32H78V37H72V32Z" fill="black"/>
<path d="M61 32H67V37H61V32Z" fill="black"/>
<path d="M47 27H53V32H47V27Z" fill="black"/>
<path d="M47 37H53V42H47V37Z" fill="black"/>
<path d="M53 32H58V37H53V32Z" fill="black"/>
<path d="M43 32H47V37H43V32Z" fill="black"/>
<path d="M37.8281 35.2469L40.4381 47.3689L32.7102 49.0328L30.1003 36.9107C29.1998 32.7286 25.0069 30.0799 20.7412 30.9983C18.6083 31.4575 16.859 32.7221 15.7462 34.3886C14.6521 36.067 14.1944 38.1474 14.6446 40.2385L17.2546 52.3605L9.52678 54.0244L6.91679 41.9023C6.01634 37.7202 6.93175 33.5594 9.13871 30.2144C11.3457 26.8695 14.8442 24.3405 19.1099 23.422C27.6415 21.5851 36.0272 26.8826 37.8281 35.2469Z" fill="#6B6C72"/>
<path d="M43.824 49.8397L49.7498 77.3623C50.112 79.0442 49.0445 80.714 47.3777 81.0729L17.0726 87.5978C15.4058 87.9567 13.7457 86.8742 13.3836 85.1923L7.45775 57.6696C7.09561 55.9877 8.16305 54.3179 9.82984 53.9591L17.4061 52.3278L32.5587 49.0653L40.135 47.4341C41.8018 47.0752 43.4618 48.1577 43.824 49.8397Z" fill="#AFB0B7"/>
<path d="M34.0034 61.6663C34.4793 63.8766 33.5992 66.0508 31.9314 67.5038L33.3945 74.299C33.5713 75.1204 33.3822 75.9425 32.9094 76.6069C32.4557 77.2828 31.7311 77.7826 30.8563 77.9709C29.1065 78.3477 27.3855 77.3118 27.0318 75.669L25.5687 68.8737C22.9889 68.1008 21.0234 65.8518 21.1474 62.8716C21.2475 60.631 22.7102 58.5346 24.8628 57.5555C28.8501 55.7437 33.193 57.9028 34.0034 61.6663Z" fill="white"/>
</g>
<defs>
<clipPath id="clip0">
<rect width="100" height="100" fill="white"/>
</clipPath>
</defs>
</svg>
