<svg width="100" height="100" viewBox="0 0 100 100" fill="none" xmlns="http://www.w3.org/2000/svg">
<g clip-path="url(#clip0)">
<path d="M37.0322 0C32.6139 0 29.0322 3.58172 29.0322 8V39.8564C29.0322 40.1472 29.179 40.4184 29.4226 40.5775C29.7637 40.8002 30.2143 40.7534 30.5024 40.4653L41.266 29.7017C42.7277 28.24 44.7084 27.4194 46.7742 27.4194C48.8399 27.4194 50.8206 28.24 52.2807 29.7001L70.2999 47.7192C71.76 49.1794 72.5806 51.1601 72.5806 53.2258C72.5806 55.29 71.76 57.2722 70.2999 58.7323L65.8169 63.2153C65.4748 63.5574 65.534 64.1276 65.9391 64.3922C66.063 64.473 66.2078 64.5161 66.3557 64.5161H92C96.4182 64.5161 100 60.9344 100 56.5161V8C100 3.58172 96.4182 0 92 0L37.0322 0Z" fill="#FFC633"/>
<path d="M42.5 30L47.5 27.5H51L74.5 49V54L71 59L38.5 91.5L9 63L42.5 30Z" fill="white" stroke="white"/>
<path d="M41.6203 81.3276C40.0582 82.8897 37.5255 82.8897 35.9634 81.3276L19.9847 65.3489C18.4226 63.7868 18.4226 61.2541 19.9847 59.692L39.1892 40.4875C40.7513 38.9254 43.284 38.9254 44.8461 40.4875L60.8248 56.4662C62.3869 58.0283 62.3869 60.561 60.8248 62.1231L41.6203 81.3276Z" fill="#FFC633"/>
<path d="M49.6096 64.2138L54.5286 59.2948L49.6096 54.3757L47.3289 56.6557L49.9679 59.2948L47.3289 61.9338L49.6096 64.2138Z" fill="#212128"/>
<path d="M42.0174 51.3444L44.6565 53.9835L46.9365 51.7027L42.0174 46.7837L37.0984 51.7027L39.3783 53.9835L42.0174 51.3444Z" fill="#212128"/>
<path d="M31.1998 67.4395L33.4805 65.1596L30.8415 62.5205L33.4805 59.8814L31.1998 57.6014L26.2808 62.5205L31.1998 67.4395Z" fill="#212128"/>
<path d="M43.7109 70.1125L41.4309 67.8318L38.7918 70.4709L36.1528 67.8318L33.8728 70.1125L38.7918 75.0316L43.7109 70.1125Z" fill="#212128"/>
<path d="M40.4046 65.7464C43.0721 65.7464 45.2433 63.5751 45.2433 60.9077C45.2433 58.2402 43.0721 56.069 40.4046 56.069C37.7372 56.069 35.5659 58.2402 35.5659 60.9077C35.5659 63.5751 37.7372 65.7464 40.4046 65.7464ZM40.4046 59.2948C41.293 59.2948 42.0175 60.0178 42.0175 60.9077C42.0175 61.7976 41.293 62.5206 40.4046 62.5206C39.5163 62.5206 38.7917 61.7976 38.7917 60.9077C38.7917 60.0178 39.5163 59.2948 40.4046 59.2948Z" fill="#212128"/>
<path d="M51.6128 0.133789H48.387V19.3547H29.0581V22.5806H51.6128V0.133789Z" fill="#212128"/>
<path d="M45.1611 6.45154H35.4836V16.129H45.1611V6.45154ZM41.9353 12.9032H38.7094V9.67734H41.9353V12.9032Z" fill="#212128"/>
<path d="M80.645 19.3555V0.0266113H77.4192V22.5813H99.9502V19.3555H80.645Z" fill="#212128"/>
<path d="M93.5483 6.45154H83.8708V16.129H93.5483V6.45154ZM90.3225 12.9032H87.0967V9.67734H90.3225V12.9032Z" fill="#212128"/>
<path d="M67.7418 14.5161H58.0644V6.45154H54.8386V17.7419H67.7418V14.5161Z" fill="#212128"/>
<path d="M70.9677 22.5806H74.1935V4.83862H61.2903V8.06443H70.9677V22.5806Z" fill="#212128"/>
<path d="M83.8708 32.258H87.0967V29.0322H93.5483V25.8064H83.8708V32.258Z" fill="#212128"/>
<path d="M90.3225 35.4839H83.8708V38.7097H93.5483V32.2581H90.3225V35.4839Z" fill="#212128"/>
<path d="M54.8386 20.9677H58.0644V24.1935H54.8386V20.9677Z" fill="#212128"/>
<path d="M61.2903 20.9677H64.5161V24.1935H61.2903V20.9677Z" fill="#212128"/>
<path d="M35.4836 25.8064H38.7094V29.0322H35.4836V25.8064Z" fill="#212128"/>
<path d="M83.8708 51.6129H90.3225V58.0645H93.5483V48.3871H83.8708V51.6129Z" fill="#212128"/>
<path d="M80.645 48.3871H77.4192V58.0645H87.0966V54.8387H80.645V48.3871Z" fill="#212128"/>
<path d="M90.3225 41.9354H93.5483V45.1612H90.3225V41.9354Z" fill="#212128"/>
<path d="M83.8708 41.9354H87.0967V45.1612H83.8708V41.9354Z" fill="#212128"/>
<path d="M77.4192 41.9354H80.645V45.1612H77.4192V41.9354Z" fill="#212128"/>
<path d="M80.645 25.8064H70.9675V29.0322H77.4191V38.7096H80.645V25.8064Z" fill="#212128"/>
<path d="M67.7419 27.4193H64.5161V35.4838H74.1935V32.258H67.7419V27.4193Z" fill="#212128"/>
<path fill-rule="evenodd" clip-rule="evenodd" d="M48.469 25.4237C50.9805 25.4237 53.3416 26.4011 55.1159 28.177L73.1351 46.1961C74.911 47.9705 75.8884 50.3316 75.8884 52.8431C75.8884 55.3175 74.885 57.74 73.1351 59.49L35.7611 96.864C33.9868 98.6399 31.6257 99.6173 29.1142 99.6173C26.6027 99.6173 24.2416 98.6399 22.4673 96.864L4.4481 78.8448C2.69816 77.0949 1.69482 74.6724 1.69482 72.1979C1.69482 69.7234 2.69816 67.3009 4.4481 65.551L41.8221 28.177C43.5964 26.4011 45.9575 25.4237 48.469 25.4237ZM38.7916 89.272L68.7689 59.2947L42.0174 32.5432L12.0401 62.5205L38.7916 89.272ZM44.3171 30.2821L71.03 56.995C72.0593 55.8641 72.6626 54.3756 72.6626 52.8431C72.6626 51.1947 72.0207 49.6432 70.8543 48.4769L52.8352 30.4577C51.6688 29.2914 50.1174 28.6495 48.469 28.6495C46.9144 28.6495 45.4574 29.2386 44.3171 30.2821Z" fill="#6B6C72"/>
</g>
<defs>
<clipPath id="clip0">
<rect width="100" height="100" fill="white"/>
</clipPath>
</defs>
</svg>
