<svg width="16" height="16" viewBox="0 0 16 16" fill="none" xmlns="http://www.w3.org/2000/svg">
<path d="M8.00026 0.78335C4.02075 0.78335 0.783594 4.02051 0.783594 8.00002C0.783594 11.9795 4.02075 15.2167 8.00026 15.2167C11.9798 15.2167 15.2169 11.9795 15.2169 8.00002C15.2169 4.02051 11.9798 0.78335 8.00026 0.78335ZM8.00026 14.1167C4.62711 14.1167 1.88359 11.3725 1.88359 8.00002C1.88359 4.62752 4.62711 1.88335 8.00026 1.88335C11.3734 1.88335 14.1169 4.62752 14.1169 8.00002C14.1169 11.3725 11.3734 14.1167 8.00026 14.1167ZM10.4123 10.4121C10.6267 10.1977 10.6271 9.84874 10.4123 9.63463L10.4121 9.63439L8.55026 7.7719V3.45402C8.55026 3.15051 8.30377 2.90402 8.00026 2.90402C7.69675 2.90402 7.45026 3.15051 7.45026 3.45402V8.00002C7.45026 8.14541 7.5078 8.28578 7.61171 8.38893C7.6118 8.38902 7.6119 8.38912 7.612 8.38922L9.63486 10.4121C9.74198 10.5192 9.88324 10.5733 10.0236 10.5733C10.1639 10.5733 10.3052 10.5192 10.4123 10.4121Z" fill="#6B6C72" stroke="#6B6C72" stroke-width="0.3"/>
</svg>
